<?xml version="1.0" encoding="UTF-8"?>
<svg version="1.1" xmlns="http://www.w3.org/2000/svg" width="206" height="237">
<path d="M0 0 C0 0.66 0 1.32 0 2 C0.59425781 2.03738281 1.18851562 2.07476562 1.80078125 2.11328125 C20.9051819 3.62856031 34.92489763 11.52428001 48 25 C49.28777344 26.30904297 49.28777344 26.30904297 50.6015625 27.64453125 C55.63883698 32.99347656 59.54040813 38.5299898 63 45 C63.54914063 46.00675781 64.09828125 47.01351562 64.6640625 48.05078125 C67.47227616 53.39437265 69.723965 57.92723005 70 64 C70.66 64 71.32 64 72 64 C72.67466072 66.87333181 73.3399234 69.74831482 74 72.625 C74.19078125 73.43324219 74.3815625 74.24148437 74.578125 75.07421875 C75.57925543 79.47204169 76.2353082 83.45561039 76 88 C76.66 88 77.32 88 78 88 C79.65738916 95.69788157 80.2966122 103.01498001 80.265625 110.87890625 C80.26753845 111.97162338 80.2694519 113.06434052 80.27142334 114.19017029 C80.27277503 116.48347201 80.2691502 118.77678165 80.26074219 121.07006836 C80.25001798 124.5566544 80.26067786 128.04272649 80.2734375 131.52929688 C80.27211593 133.77083446 80.26955358 136.01237172 80.265625 138.25390625 C80.26967346 139.28334854 80.27372192 140.31279083 80.27789307 141.37342834 C80.23672661 147.80404377 79.5086384 153.74732287 78 160 C77.34 160 76.68 160 76 160 C75.896875 161.093125 75.79375 162.18625 75.6875 163.3125 C75.0310434 168.68965184 73.516408 173.81178648 72 179 C71.34 179 70.68 179 70 179 C69.896875 179.825 69.79375 180.65 69.6875 181.5 C67.87430877 190.73079171 63.76995816 198.45570711 57 205 C56.54625 205.78375 56.0925 206.5675 55.625 207.375 C53.47865976 210.842165 51.01163831 213.24467133 48 216 C47.34 216 46.68 216 46 216 C45.67 216.66 45.34 217.32 45 218 C39.46354781 222.47880635 32.4731847 228 25 228 C25 228.66 25 229.32 25 230 C22.12666819 230.67466072 19.25168518 231.3399234 16.375 232 C15.56675781 232.19078125 14.75851563 232.3815625 13.92578125 232.578125 C9.52795831 233.57925543 5.54438961 234.2353082 1 234 C1 234.66 1 235.32 1 236 C-4.99567472 236.04960464 -10.99122875 236.08581647 -16.98706055 236.10986328 C-19.02484215 236.11989285 -21.06260946 236.13351978 -23.1003418 236.15087891 C-26.0369826 236.17526127 -28.97343235 236.18651377 -31.91015625 236.1953125 C-32.81459976 236.20563507 -33.71904327 236.21595764 -34.65089417 236.22659302 C-39.85783289 236.22750725 -44.06257671 235.65272841 -49 234 C-51.2261588 233.54744363 -53.455453 233.11005942 -55.6875 232.6875 C-67.5999325 230.15374452 -81.46326259 225.05842691 -90 216 C-91.30981327 214.91341979 -92.62248596 213.83028025 -93.9375 212.75 C-97.74210171 209.44618682 -99.72382573 206.4710566 -102 202 C-102.721875 200.96875 -103.44375 199.9375 -104.1875 198.875 C-105.93233006 196.10733853 -106.6219001 194.21384912 -107 191 C-107.66 191 -108.32 191 -109 191 C-109.12632813 190.44699219 -109.25265625 189.89398438 -109.3828125 189.32421875 C-110.06625694 186.75048812 -110.94591951 184.30805342 -111.875 181.8125 C-120.33651716 158.68842603 -120.33651716 158.68842603 -120 148 C-120.66 148 -121.32 148 -122 148 C-122.81269705 143.02495436 -123.14777509 138.20489512 -123.1328125 133.16015625 C-123.13376923 132.43436874 -123.13472595 131.70858124 -123.13571167 130.96080017 C-123.13638795 129.43553581 -123.13457246 127.91026849 -123.13037109 126.38500977 C-123.12502281 124.07236143 -123.13033091 121.75990796 -123.13671875 119.44726562 C-123.13605772 117.95572874 -123.13477604 116.46419198 -123.1328125 114.97265625 C-123.13483673 114.29219742 -123.13686096 113.61173859 -123.13894653 112.91065979 C-123.07742263 100.07742263 -123.07742263 100.07742263 -121 98 C-120.6567441 96.4541352 -120.36546531 94.89664275 -120.09765625 93.3359375 C-119.92943359 92.37816406 -119.76121094 91.42039062 -119.58789062 90.43359375 C-119.32782227 88.91958984 -119.32782227 88.91958984 -119.0625 87.375 C-117.99052067 81.13877042 -116.88816089 75.04550169 -115 69 C-114.34 69 -113.68 69 -113 69 C-112.896875 68.01 -112.79375 67.02 -112.6875 66 C-112.09465935 61.71934177 -110.5653712 58.01551742 -109 54 C-109 53.34 -109 52.68 -109 52 C-108.34 52 -107.68 52 -107 52 C-106.71125 51.113125 -106.4225 50.22625 -106.125 49.3125 C-103.32052689 41.05488474 -103.32052689 41.05488474 -100 38 C-98.9926892 36.67218122 -97.99387334 35.33790641 -97 34 C-92.50467288 28.43999015 -88.25518053 23.62142031 -82 20 C-81.54625 19.53464844 -81.0925 19.06929687 -80.625 18.58984375 C-71.31220327 9.4785258 -54.12589553 2.25036555 -41.15625 1.9296875 C-40.08890625 1.96449219 -40.08890625 1.96449219 -39 2 C-39 1.34 -39 0.68 -39 0 C-26.11715383 -1.66230273 -12.89017288 -1.58997727 0 0 Z " fill="#BCE6E4" transform="translate(124,1)"/>
<path d="M0 0 C0 0.33 0 0.66 0 1 C-2.31 1.33 -4.62 1.66 -7 2 C-7 2.33 -7 2.66 -7 3 C-9.64 3 -12.28 3 -15 3 C-15 13.56 -15 24.12 -15 35 C-13.515 35.495 -13.515 35.495 -12 36 C-12.99 36 -13.98 36 -15 36 C-15 57.45 -15 78.9 -15 101 C-16.32 101 -17.64 101 -19 101 C-19 79.55 -19 58.1 -19 36 C-37.06805602 37.53285086 -37.06805602 37.53285086 -52 46 C-52.99 46 -53.98 46 -55 46 C-55.26167969 46.59167969 -55.52335937 47.18335938 -55.79296875 47.79296875 C-57.06398421 50.11699378 -58.37984996 51.51697812 -60.3125 53.3125 C-65.0501538 57.92184234 -68.88561183 62.65683549 -71 69 C-71.66 69 -72.32 69 -73 69 C-73.12246094 69.79664062 -73.24492188 70.59328125 -73.37109375 71.4140625 C-74.13464624 75.76773448 -75.08962684 80.06410623 -76.0625 84.375 C-76.24876953 85.20644531 -76.43503906 86.03789063 -76.62695312 86.89453125 C-77.08318198 88.93001382 -77.54139025 90.96505255 -78 93 C-78.66 93 -79.32 93 -80 93 C-80.02502765 98.03132784 -80.04301234 103.06261813 -80.05493164 108.09399414 C-80.05990931 109.79972974 -80.06669386 111.5054612 -80.07543945 113.21118164 C-80.12530607 123.19917239 -79.99518791 133.05148678 -79 143 C-78.34 143 -77.68 143 -77 143 C-76.32844651 145.26949102 -75.6626037 147.5403961 -75 149.8125 C-74.443125 151.70935547 -74.443125 151.70935547 -73.875 153.64453125 C-73 157 -73 157 -73 160 C-72.34 160 -71.68 160 -71 160 C-70.32645501 161.43429001 -69.66140299 162.87257057 -69 164.3125 C-68.62875 165.11300781 -68.2575 165.91351563 -67.875 166.73828125 C-67 169 -67 169 -67 172 C-66.34 172 -65.68 172 -65 172 C-61 177.41176471 -61 177.41176471 -61 180 C-60.401875 180.268125 -59.80375 180.53625 -59.1875 180.8125 C-56.98945536 182.00572423 -55.75321129 183.24678871 -54 185 C-53.113125 185.515625 -52.22625 186.03125 -51.3125 186.5625 C-50.549375 187.036875 -49.78625 187.51125 -49 188 C-49 188.66 -49 189.32 -49 190 C-48.28457031 190.13277344 -47.56914063 190.26554688 -46.83203125 190.40234375 C-44.05811678 190.98773535 -41.39700725 191.73158444 -38.6875 192.5625 C-37.36298828 192.96662109 -37.36298828 192.96662109 -36.01171875 193.37890625 C-35.01591797 193.68634766 -35.01591797 193.68634766 -34 194 C-34 194.66 -34 195.32 -34 196 C-29.05 196.33 -24.1 196.66 -19 197 C-19 183.47 -19 169.94 -19 156 C-17.68 156 -16.36 156 -15 156 C-15 169.53 -15 183.06 -15 197 C-10.38 196.67 -5.76 196.34 -1 196 C-1 195.34 -1 194.68 -1 194 C0.9570868 193.32968281 2.91571113 192.66385317 4.875 192 C5.96554688 191.62875 7.05609375 191.2575 8.1796875 190.875 C11 190 11 190 13 190 C13 189.34 13 188.68 13 188 C13.99 187.525625 14.98 187.05125 16 186.5625 C23.68709547 182.14982653 28.52636778 174.96040718 32 167 C32.66 167 33.32 167 34 167 C34.13277344 166.29488281 34.26554688 165.58976563 34.40234375 164.86328125 C35.01403989 161.93273701 35.7631353 159.0721639 36.5625 156.1875 C36.83191406 155.21167969 37.10132813 154.23585937 37.37890625 153.23046875 C37.68634766 152.12638672 37.68634766 152.12638672 38 151 C38.66 151 39.32 151 40 151 C40.13277344 150.04738281 40.26554688 149.09476563 40.40234375 148.11328125 C40.66724609 146.23189453 40.66724609 146.23189453 40.9375 144.3125 C41.11152344 143.07113281 41.28554687 141.82976562 41.46484375 140.55078125 C41.89641516 137.68728921 42.4320807 134.83959648 43 132 C55.21 132 67.42 132 80 132 C80.33 131.01 80.66 130.02 81 129 C81.08119503 131.24940295 81.13927819 133.49964871 81.1875 135.75 C81.22230469 137.00296875 81.25710937 138.2559375 81.29296875 139.546875 C80.97123461 143.33904802 80.28732086 144.14084893 78 147 C77.12838734 150.21188286 77.12838734 150.21188286 76.5625 153.8125 C76.31201524 155.16339932 76.05800675 156.51364922 75.80078125 157.86328125 C75.60476318 158.89509521 75.60476318 158.89509521 75.40478516 159.94775391 C73.13123344 171.47457882 69.36192556 181.63046114 64 192 C63.53851563 192.90492188 63.07703125 193.80984375 62.6015625 194.7421875 C52.59440009 212.84763162 36.29619232 223.26435437 16.80078125 228.9296875 C11.2105967 230.4026345 5.7361851 231.35062056 0 232 C-0.33 232.33 -0.66 232.66 -1 233 C-0.01 233.99 0.98 234.98 2 236 C-3.85325906 236.04961359 -9.70639439 236.08582065 -15.55981445 236.10986328 C-17.54909397 236.11989136 -19.53835886 236.13351717 -21.52758789 236.15087891 C-24.39473085 236.17526791 -27.2616781 236.18651526 -30.12890625 236.1953125 C-31.01147598 236.20563507 -31.89404572 236.21595764 -32.80335999 236.22659302 C-37.95629747 236.22751932 -42.11158261 235.62908633 -47 234 C-49.2261588 233.54744363 -51.455453 233.11005942 -53.6875 232.6875 C-65.5999325 230.15374452 -79.46326259 225.05842691 -88 216 C-89.30981327 214.91341979 -90.62248596 213.83028025 -91.9375 212.75 C-95.74210171 209.44618682 -97.72382573 206.4710566 -100 202 C-100.721875 200.96875 -101.44375 199.9375 -102.1875 198.875 C-103.93233006 196.10733853 -104.6219001 194.21384912 -105 191 C-105.66 191 -106.32 191 -107 191 C-107.12632813 190.44699219 -107.25265625 189.89398438 -107.3828125 189.32421875 C-108.06625694 186.75048812 -108.94591951 184.30805342 -109.875 181.8125 C-118.33651716 158.68842603 -118.33651716 158.68842603 -118 148 C-118.66 148 -119.32 148 -120 148 C-120.81269705 143.02495436 -121.14777509 138.20489512 -121.1328125 133.16015625 C-121.13376923 132.43436874 -121.13472595 131.70858124 -121.13571167 130.96080017 C-121.13638795 129.43553581 -121.13457246 127.91026849 -121.13037109 126.38500977 C-121.12502281 124.07236143 -121.13033091 121.75990796 -121.13671875 119.44726562 C-121.13605772 117.95572874 -121.13477604 116.46419198 -121.1328125 114.97265625 C-121.13483673 114.29219742 -121.13686096 113.61173859 -121.13894653 112.91065979 C-121.07742263 100.07742263 -121.07742263 100.07742263 -119 98 C-118.6567441 96.4541352 -118.36546531 94.89664275 -118.09765625 93.3359375 C-117.92943359 92.37816406 -117.76121094 91.42039062 -117.58789062 90.43359375 C-117.32782227 88.91958984 -117.32782227 88.91958984 -117.0625 87.375 C-115.99052067 81.13877042 -114.88816089 75.04550169 -113 69 C-112.34 69 -111.68 69 -111 69 C-110.896875 68.01 -110.79375 67.02 -110.6875 66 C-110.09465935 61.71934177 -108.5653712 58.01551742 -107 54 C-107 53.34 -107 52.68 -107 52 C-106.34 52 -105.68 52 -105 52 C-104.71125 51.113125 -104.4225 50.22625 -104.125 49.3125 C-101.32052689 41.05488474 -101.32052689 41.05488474 -98 38 C-96.9926892 36.67218122 -95.99387334 35.33790641 -95 34 C-90.50467288 28.43999015 -86.25518053 23.62142031 -80 20 C-79.54625 19.53464844 -79.0925 19.06929687 -78.625 18.58984375 C-69.31220327 9.4785258 -52.12589553 2.25036555 -39.15625 1.9296875 C-38.08890625 1.96449219 -38.08890625 1.96449219 -37 2 C-37 1.34 -37 0.68 -37 0 C-24.83064033 -1.57023996 -12.15685573 -1.80101566 0 0 Z " fill="#BCE6E4" transform="translate(122,1)"/>
<path d="M0 0 C0 21.45 0 42.9 0 65 C-4.95 65.495 -4.95 65.495 -10 66 C-10 66.66 -10 67.32 -10 68 C-10.54269531 68.21914062 -11.08539063 68.43828125 -11.64453125 68.6640625 C-15.66132362 70.44447858 -17.63176714 71.4016216 -20 75.25 C-20.33 76.1575 -20.66 77.065 -21 78 C-21.66 78 -22.32 78 -23 78 C-23.66 82.95 -24.32 87.9 -25 93 C-37.21 93 -49.42 93 -62 93 C-62.020625 88.730625 -62.04125 84.46125 -62.0625 80.0625 C-62.071604 78.73484619 -62.08070801 77.40719238 -62.09008789 76.03930664 C-62.10505799 69.60264503 -61.87387771 63.37861919 -61 57 C-60.34 57 -59.68 57 -59 57 C-58.97421875 56.35675781 -58.9484375 55.71351562 -58.921875 55.05078125 C-58.43340184 47.26851569 -56.51555629 40.35946469 -54 33 C-53.34 33 -52.68 33 -52 33 C-51.814375 32.195625 -51.62875 31.39125 -51.4375 30.5625 C-49.45301763 25.644435 -46.37610903 22.04722198 -43 18 C-42.12408203 16.90365234 -42.12408203 16.90365234 -41.23046875 15.78515625 C-37.57407694 11.35291607 -34.20740677 8.40842563 -29 6 C-28.29875 5.65195312 -27.5975 5.30390625 -26.875 4.9453125 C-17.69245337 0.57722608 -10.46207865 0 0 0 Z " fill="#5AC3BE" transform="translate(103,37)"/>
<path d="M0 0 C14.625 2.25 14.625 2.25 22 5 C22 5.66 22 6.32 22 7 C22.54140625 7.08507813 23.0828125 7.17015625 23.640625 7.2578125 C33.14295836 10.2469571 41.32495012 19.6124105 46 28 C46 28.99 46 29.98 46 31 C46.66 31 47.32 31 48 31 C48.8394882 33.10171867 49.67139656 35.20646625 50.5 37.3125 C50.9640625 38.48425781 51.428125 39.65601563 51.90625 40.86328125 C53 44 53 44 53 47 C53.66 47 54.32 47 55 47 C55.4835135 49.47838682 55.96187201 51.95759778 56.4375 54.4375 C56.57220703 55.12521484 56.70691406 55.81292969 56.84570312 56.52148438 C58.50207231 65.20732277 59.16411817 73.65929442 59.125 82.5 C59.13080078 83.85738281 59.13080078 83.85738281 59.13671875 85.2421875 C59.13542969 86.10070312 59.13414062 86.95921875 59.1328125 87.84375 C59.13168457 88.61912109 59.13055664 89.39449219 59.12939453 90.19335938 C59 92 59 92 58 93 C55.47905924 93.08847743 52.98569107 93.11527301 50.46484375 93.09765625 C49.33496788 93.09553383 49.33496788 93.09553383 48.18226624 93.09336853 C45.7673044 93.08775376 43.35243399 93.07519883 40.9375 93.0625 C39.30403779 93.0574869 37.67057414 93.05292366 36.03710938 93.04882812 C32.02470415 93.03777954 28.01236759 93.02050506 24 93 C23.505 88.05 23.505 88.05 23 83 C22.34 83 21.68 83 21 83 C20.78085938 82.48050781 20.56171875 81.96101563 20.3359375 81.42578125 C17.50358435 75.19690704 14.50023517 71.59793345 8.125 68.6875 C7.42375 68.460625 6.7225 68.23375 6 68 C6 67.34 6 66.68 6 66 C4.02 65.67 2.04 65.34 0 65 C0 43.55 0 22.1 0 0 Z " fill="#5AC3BE" transform="translate(107,37)"/>
<path d="M0 0 C11.88 0 23.76 0 36 0 C38 6 38 6 38 9 C38.66 9 39.32 9 40 9 C40.53625 10.0725 41.0725 11.145 41.625 12.25 C45.17591274 18.38676906 50.53205994 20.40346723 57.046875 22.38671875 C59 23 59 23 61 24 C61 37.53 61 51.06 61 65 C52 65 52 65 49 64.5 C48.01 64.335 47.02 64.17 46 64 C46 63.34 46 62.68 46 62 C45.01 61.896875 44.02 61.79375 43 61.6875 C38.71702837 61.09191294 35.00003629 59.61404973 31 58 C31 57.34 31 56.68 31 56 C30.319375 55.79375 29.63875 55.5875 28.9375 55.375 C22.74019881 52.47413561 18.35204886 47.89960599 15 42 C15 41.34 15 40.68 15 40 C14.34 40 13.68 40 13 40 C12.32645501 38.56570999 11.66140299 37.12742943 11 35.6875 C10.443125 34.48673828 10.443125 34.48673828 9.875 33.26171875 C9 31 9 31 9 28 C8.34 28 7.68 28 7 28 C6.32389577 26.10751181 5.65949561 24.2108398 5 22.3125 C4.62875 21.25675781 4.2575 20.20101562 3.875 19.11328125 C3.0608143 16.21637944 2.82290204 13.98299377 3 11 C2.34 11 1.68 11 1 11 C0.67 7.37 0.34 3.74 0 0 Z " fill="#5BC3BE" transform="translate(42,133)"/>
<path d="M0 0 C11.22 0 22.44 0 34 0 C33.36220245 7.01577306 32.85278053 12.4535088 31 19 C30.34 19 29.68 19 29 19 C28.896875 20.155 28.79375 21.31 28.6875 22.5 C28.13964887 27.01171519 26.7225121 30.80605749 25 35 C24.34 35 23.68 35 23 35 C22.74734375 35.88558594 22.4946875 36.77117187 22.234375 37.68359375 C19.49257051 45.05002416 13.41003999 51.52787908 7 56 C6.01 56 5.02 56 4 56 C4 56.66 4 57.32 4 58 C2.42032193 58.67528223 0.83608097 59.33989694 -0.75 60 C-1.63171875 60.37125 -2.5134375 60.7425 -3.421875 61.125 C-6 62 -6 62 -10 62 C-10 62.66 -10 63.32 -10 64 C-14.90251498 64.980503 -18.80942241 65 -24 65 C-24 51.47 -24 37.94 -24 24 C-19.71 23.01 -15.42 22.02 -11 21 C-10.34 20.01 -9.68 19.02 -9 18 C-8.01 18 -7.02 18 -6 18 C-5.690625 17.21625 -5.38125 16.4325 -5.0625 15.625 C-4 13 -4 13 -3 11 C-2.34 11 -1.68 11 -1 11 C-0.67 7.37 -0.34 3.74 0 0 Z " fill="#5BC3BE" transform="translate(131,133)"/>
<path d="M0 0 C1.03125 -0.00257812 2.0625 -0.00515625 3.125 -0.0078125 C5.59657009 0.10636329 7.6442958 0.41149344 10 1.125 C10 1.785 10 2.445 10 3.125 C10.86625 3.351875 11.7325 3.57875 12.625 3.8125 C18.33360054 6.03251132 22.36810656 9.56878051 25 15.125 C25 16.115 25 17.105 25 18.125 C25.66 18.125 26.32 18.125 27 18.125 C28.2772917 21.95687511 28.14510286 25.57208317 28.125 29.5625 C28.12886719 30.32626953 28.13273437 31.09003906 28.13671875 31.87695312 C28.13542969 32.61751953 28.13414062 33.35808594 28.1328125 34.12109375 C28.13168457 34.79325928 28.13055664 35.4654248 28.12939453 36.15795898 C27.99199609 38.24667459 27.56530559 40.11330925 27 42.125 C26.34 42.125 25.68 42.125 25 42.125 C24.690625 42.90875 24.38125 43.6925 24.0625 44.5 C23 47.125 23 47.125 22 49.125 C21.01 49.125 20.02 49.125 19 49.125 C18.7215625 50.053125 18.7215625 50.053125 18.4375 51 C16.71031276 53.55323332 15.21338967 54.12330989 12.25 54.80859375 C1.98946693 56.25148121 -6.82397369 55.20433757 -15.4375 49.3125 C-18.78019716 46.66093704 -20.18426484 44.40760957 -21 40.125 C-21.66 40.125 -22.32 40.125 -23 40.125 C-23.66 37.485 -24.32 34.845 -25 32.125 C-36.88 31.795 -48.76 31.465 -61 31.125 C-61.33 30.135 -61.66 29.145 -62 28.125 C-49.79 28.125 -37.58 28.125 -25 28.125 C-25 25.155 -25 22.185 -25 19.125 C-24 15.5625 -24 15.5625 -23 13.125 C-22.34 13.125 -21.68 13.125 -21 13.125 C-20.79375 12.2175 -20.5875 11.31 -20.375 10.375 C-18.66013628 6.32168575 -16.83865392 5.16183677 -13 3.125 C-12.01 3.125 -11.02 3.125 -10 3.125 C-10 2.465 -10 1.805 -10 1.125 C-6.62097444 0.10154514 -3.52139987 -0.0088035 0 0 Z " fill="#B6BCE0" transform="translate(103,101.875)"/>
<path d="M0 0 C1.87060547 0.28613281 1.87060547 0.28613281 4 1 C5.5621348 3.58194355 6.86449307 6.02768845 8.125 8.75 C8.47175781 9.46671875 8.81851563 10.1834375 9.17578125 10.921875 C14 20.97695163 14 20.97695163 14 26 C14.66 26 15.32 26 16 26 C16.67466072 28.87333181 17.3399234 31.74831482 18 34.625 C18.19078125 35.43324219 18.3815625 36.24148437 18.578125 37.07421875 C19.57925543 41.47204169 20.2353082 45.45561039 20 50 C20.66 50 21.32 50 22 50 C23.65738916 57.69788157 24.2966122 65.01498001 24.265625 72.87890625 C24.26753845 73.97162338 24.2694519 75.06434052 24.27142334 76.19017029 C24.27277503 78.48347201 24.2691502 80.77678165 24.26074219 83.07006836 C24.25001798 86.5566544 24.26067786 90.04272649 24.2734375 93.52929688 C24.27211593 95.77083446 24.26955358 98.01237172 24.265625 100.25390625 C24.26967346 101.28334854 24.27372192 102.31279083 24.27789307 103.37342834 C24.23672661 109.80404377 23.5086384 115.74732287 22 122 C21.34 122 20.68 122 20 122 C19.896875 123.093125 19.79375 124.18625 19.6875 125.3125 C19.0310434 130.68965184 17.516408 135.81178648 16 141 C15.34 141 14.68 141 14 141 C13.896875 141.825 13.79375 142.65 13.6875 143.5 C11.87430877 152.73079171 7.76995816 160.45570711 1 167 C0.319375 168.175625 0.319375 168.175625 -0.375 169.375 C-2.52134024 172.842165 -4.98836169 175.24467133 -8 178 C-8.66 178 -9.32 178 -10 178 C-10.33 178.66 -10.66 179.32 -11 180 C-16.53645219 184.47880635 -23.5268153 190 -31 190 C-31 190.66 -31 191.32 -31 192 C-33.87333181 192.67466072 -36.74831482 193.3399234 -39.625 194 C-40.43324219 194.19078125 -41.24148437 194.3815625 -42.07421875 194.578125 C-46.47204169 195.57925543 -50.45561039 196.2353082 -55 196 C-55.495 196.99 -55.495 196.99 -56 198 C-57.32 197.01 -58.64 196.02 -60 195 C-57.14302663 192.14302663 -53.90809789 192.19381685 -50.0625 191.625 C-43.008795 190.47116003 -36.56860912 188.90080792 -30 186 C-29.01515625 185.56816406 -28.0303125 185.13632813 -27.015625 184.69140625 C-8.36059644 175.95573932 3.58735211 160.90973358 10.77734375 141.95019531 C13.64025595 133.88374676 15.6231845 125.67367886 17.30859375 117.28515625 C18.32354308 112.4627134 19.63768455 107.73428772 21 103 C21.33 103 21.66 103 22 103 C22.0246985 99.04900072 22.04285923 95.09803126 22.05493164 91.14697266 C22.06244036 89.14093449 22.0751447 87.13491798 22.08789062 85.12890625 C22.09272461 83.24365234 22.09272461 83.24365234 22.09765625 81.3203125 C22.10551147 79.57645264 22.10551147 79.57645264 22.11352539 77.79736328 C22.19356283 75.04497808 22.19356283 75.04497808 21 73 C20.68728407 71.06454195 20.37963179 69.12809849 20.10058594 67.1875 C17.06990704 46.11626175 13.32263669 22.73283693 1.06640625 4.8125 C0 3 0 3 0 0 Z " fill="#A2DDDA" transform="translate(180,39)"/>
<path d="M0 0 C3.18714425 1.89505874 4.54045378 4.15906427 6.3125 7.375 C6.3125 8.365 6.3125 9.355 6.3125 10.375 C6.9725 10.375 7.6325 10.375 8.3125 10.375 C8.3125 14.005 8.3125 17.635 8.3125 21.375 C7.6525 21.375 6.9925 21.375 6.3125 21.375 C6.209375 21.9525 6.10625 22.53 6 23.125 C5.19713029 25.75257361 4.14215102 27.33423541 2.3125 29.375 C-2.86748568 31.10166189 -8.48499878 31.28472877 -13.5625 29.1875 C-17.52644532 25.80648782 -19.79788037 23.22786447 -20.5625 18 C-20.88770091 13.68566795 -20.15136611 10.42215923 -18.6875 6.375 C-18.0275 6.375 -17.3675 6.375 -16.6875 6.375 C-16.0275 5.055 -15.3675 3.735 -14.6875 2.375 C-14.0275 2.375 -13.3675 2.375 -12.6875 2.375 C-12.6875 1.715 -12.6875 1.055 -12.6875 0.375 C-8.34721287 -1.07176238 -4.45225579 -1.03540832 0 0 Z " fill="#A2AAC9" transform="translate(110.6875,114.625)"/>
<path d="M0 0 C0.66 0 1.32 0 2 0 C2.02578125 0.54785156 2.0515625 1.09570312 2.078125 1.66015625 C2.60370245 9.00629563 4.3829499 15.88941642 6.40869141 22.94091797 C7.01522939 25.05303247 7.60735277 27.16888848 8.19921875 29.28515625 C15.35764049 54.98276829 15.35764049 54.98276829 31 76 C31.99 76.33 32.98 76.66 34 77 C35.10794922 78.1446875 35.10794922 78.1446875 36.23828125 79.3125 C39.28103919 82.27348651 42.41761921 84.14840693 46.1875 86 C46.87803467 86.3417627 47.56856934 86.68352539 48.2800293 87.03564453 C59.47055832 92.344663 71.78572891 95.19745339 84 97 C84 97.66 84 98.32 84 99 C78.43313497 100.39624954 73.87315197 99.53079098 68.375 98.375 C67.48490234 98.19042236 66.59480469 98.00584473 65.67773438 97.81567383 C53.56953187 95.17718643 39.69212272 90.22330799 31 81 C29.69018673 79.91341979 28.37751404 78.83028025 27.0625 77.75 C23.25789829 74.44618682 21.27617427 71.4710566 19 67 C18.278125 65.96875 17.55625 64.9375 16.8125 63.875 C15.06766994 61.10733853 14.3780999 59.21384912 14 56 C13.34 56 12.68 56 12 56 C11.87367187 55.44699219 11.74734375 54.89398438 11.6171875 54.32421875 C10.93374306 51.75048812 10.05408049 49.30805342 9.125 46.8125 C6.10331674 38.6872651 3.50679386 30.69860192 1.8125 22.1875 C1.6381543 21.31963867 1.46380859 20.45177734 1.28417969 19.55761719 C0.03638559 12.99632023 -0.48897081 6.68260107 0 0 Z " fill="#A1DCDA" transform="translate(3,136)"/>
<path d="M0 0 C1.03125 -0.00257812 2.0625 -0.00515625 3.125 -0.0078125 C5.59657009 0.10636329 7.6442958 0.41149344 10 1.125 C10 1.785 10 2.445 10 3.125 C11.299375 3.4653125 11.299375 3.4653125 12.625 3.8125 C18.33360054 6.03251132 22.36810656 9.56878051 25 15.125 C25 16.115 25 17.105 25 18.125 C25.66 18.125 26.32 18.125 27 18.125 C28.2772917 21.95687511 28.14510286 25.57208317 28.125 29.5625 C28.13080078 30.7081543 28.13080078 30.7081543 28.13671875 31.87695312 C28.13542969 32.61751953 28.13414062 33.35808594 28.1328125 34.12109375 C28.13168457 34.79325928 28.13055664 35.4654248 28.12939453 36.15795898 C27.99199609 38.24667459 27.56530559 40.11330925 27 42.125 C26.34 42.125 25.68 42.125 25 42.125 C24.690625 42.90875 24.38125 43.6925 24.0625 44.5 C23 47.125 23 47.125 22 49.125 C21.01 49.125 20.02 49.125 19 49.125 C18.7215625 50.053125 18.7215625 50.053125 18.4375 51 C16.71031276 53.55323332 15.21338967 54.12330989 12.25 54.80859375 C1.98946693 56.25148121 -6.82397369 55.20433757 -15.4375 49.3125 C-18.78019716 46.66093704 -20.18426484 44.40760957 -21 40.125 C-21.66 40.125 -22.32 40.125 -23 40.125 C-23.33 37.485 -23.66 34.845 -24 32.125 C-23.34 32.125 -22.68 32.125 -22 32.125 C-21.67 34.105 -21.34 36.085 -21 38.125 C-20.34 38.125 -19.68 38.125 -19 38.125 C-18.06187532 39.56569147 -17.12624075 41.0081045 -16.20703125 42.4609375 C-13.57389934 46.09108053 -10.26760689 48.70246437 -6 50.125 C-6 50.785 -6 51.445 -6 52.125 C6.38471859 52.7211497 6.38471859 52.7211497 16.75 46.6875 C22.03738473 40.66575629 24.4597659 35.634412 24.25390625 27.49609375 C23.55484136 20.96790319 21.32857864 16.05062397 17 11.125 C17 10.465 17 9.805 17 9.125 C14.11980724 7.65847983 11.20691485 6.30452126 8.25 5 C7.45078125 4.64679688 6.6515625 4.29359375 5.828125 3.9296875 C5.22484375 3.66414063 4.6215625 3.39859375 4 3.125 C4 2.465 4 1.805 4 1.125 C-9.12584155 3.66992793 -9.12584155 3.66992793 -19 12.125 C-21.5121535 17.27491468 -22.95581275 22.50869186 -24 28.125 C-24.33 28.125 -24.66 28.125 -25 28.125 C-25.21755666 22.6860835 -25.10428384 18.25419186 -23 13.125 C-22.34 13.125 -21.68 13.125 -21 13.125 C-20.79375 12.2175 -20.5875 11.31 -20.375 10.375 C-18.66013628 6.32168575 -16.83865392 5.16183677 -13 3.125 C-12.01 3.125 -11.02 3.125 -10 3.125 C-10 2.465 -10 1.805 -10 1.125 C-6.62097444 0.10154514 -3.52139987 -0.0088035 0 0 Z " fill="#D3AAC3" transform="translate(103,101.875)"/>
<path d="M0 0 C1.32 0 2.64 0 4 0 C4 25.41 4 50.82 4 77 C7.3 77 10.6 77 14 77 C13.67 77.99 13.34 78.98 13 80 C4.75 80 -3.5 80 -12 80 C-12 79.34 -12 78.68 -12 78 C-12.66 77.67 -13.32 77.34 -14 77 C-9.38 77 -4.76 77 0 77 C0 51.59 0 26.18 0 0 Z " fill="#C8DBDA" transform="translate(103,157)"/>
<path d="M0 0 C0.33 0.99 0.66 1.98 1 3 C-0.22265625 5.0234375 -0.22265625 5.0234375 -2.0625 7.375 C-17.8279924 29.08383278 -22.29914444 57.92367179 -24 84 C-25.485 84.495 -25.485 84.495 -27 85 C-27.02888146 81.68751813 -27.04675799 78.37506833 -27.0625 75.0625 C-27.07087891 74.11697266 -27.07925781 73.17144531 -27.08789062 72.19726562 C-27.09111328 71.29814453 -27.09433594 70.39902344 -27.09765625 69.47265625 C-27.10289307 68.64000244 -27.10812988 67.80734863 -27.11352539 66.94946289 C-27 65 -27 65 -26 64 C-25.6567441 62.4541352 -25.36546531 60.89664275 -25.09765625 59.3359375 C-24.92943359 58.37816406 -24.76121094 57.42039063 -24.58789062 56.43359375 C-24.41451172 55.42425781 -24.24113281 54.41492188 -24.0625 53.375 C-22.99052067 47.13877042 -21.88816089 41.04550169 -20 35 C-19.34 35 -18.68 35 -18 35 C-17.896875 34.01 -17.79375 33.02 -17.6875 32 C-17.09465935 27.71934177 -15.5653712 24.01551742 -14 20 C-14 19.34 -14 18.68 -14 18 C-13.34 18 -12.68 18 -12 18 C-11.71125 17.113125 -11.4225 16.22625 -11.125 15.3125 C-10.75375 14.219375 -10.3825 13.12625 -10 12 C-9.731875 11.071875 -9.46375 10.14375 -9.1875 9.1875 C-8.795625 8.465625 -8.40375 7.74375 -8 7 C-6.34178227 6.62690101 -4.67422986 6.29299023 -3 6 C-1.6830333 4.11629529 -1.6830333 4.11629529 -1 2 C-0.67 1.34 -0.34 0.68 0 0 Z " fill="#9FDDD8" transform="translate(29,35)"/>
<path d="M0 0 C5.94 0 11.88 0 18 0 C17.01 0.33 16.02 0.66 15 1 C15 22.45 15 43.9 15 66 C13.68 66 12.36 66 11 66 C11 44.55 11 23.1 11 1 C7.37 1 3.74 1 0 1 C0 0.67 0 0.34 0 0 Z " fill="#9DCBC9" transform="translate(92,36)"/>
<path d="M0 0 C0 3.63 0 7.26 0 11 C-1.32 11 -2.64 11 -4 11 C-4 8.03 -4 5.06 -4 2 C-5.15628906 2.433125 -5.15628906 2.433125 -6.3359375 2.875 C-7.84027344 3.431875 -7.84027344 3.431875 -9.375 4 C-10.37273437 4.37125 -11.37046875 4.7425 -12.3984375 5.125 C-15 6 -15 6 -17 6 C-17.268125 6.5775 -17.53625 7.155 -17.8125 7.75 C-19 10 -19 10 -20.5 11.9375 C-24.32657308 17.19903799 -24.25350444 22.05037984 -24.125 28.3125 C-24.11597656 29.14845703 -24.10695312 29.98441406 -24.09765625 30.84570312 C-24.07420989 32.89725969 -24.03834266 34.94866777 -24 37 C-26 34 -26 34 -26 31 C-45.305 30.505 -45.305 30.505 -65 30 C-65.33 29.01 -65.66 28.02 -66 27 C-53.46 27 -40.92 27 -28 27 C-27.67 24.36 -27.34 21.72 -27 19 C-25.18538244 11.7184136 -25.18538244 11.7184136 -21.9375 9.75 C-21.298125 9.5025 -20.65875 9.255 -20 9 C-19.690625 8.360625 -19.38125 7.72125 -19.0625 7.0625 C-17.54471434 4.11621019 -15.99943906 3.40399275 -13 2 C-8.59079075 0.73235234 -4.60067077 0 0 0 Z " fill="#D0C0D2" transform="translate(107,103)"/>
<path d="M0 0 C0 0.99 0 1.98 0 3 C-23.43 3 -46.86 3 -71 3 C-71 2.01 -71 1.02 -71 0 C-47.27731565 -1.00796838 -23.72517835 -0.89410388 0 0 Z " fill="#CADAD9" transform="translate(202,130)"/>
<path d="M0 0 C2.31 0 4.62 0 7 0 C6.26586914 1.91601562 6.26586914 1.91601562 5 4 C3.07983398 4.84960937 3.07983398 4.84960937 0.74609375 5.34375 C-0.10919922 5.53839844 -0.96449219 5.73304688 -1.84570312 5.93359375 C-2.74224609 6.12050781 -3.63878906 6.30742188 -4.5625 6.5 C-11.48629988 7.98843733 -17.61919209 9.91574843 -24 13 C-25.02867188 13.45761719 -26.05734375 13.91523438 -27.1171875 14.38671875 C-33.78904919 17.53364501 -39.1756495 21.28173678 -44.72265625 26.14453125 C-47 28 -47 28 -50 29 C-49.875 26.75 -49.875 26.75 -49 24 C-46.125 21.875 -46.125 21.875 -43 20 C-42.53078125 19.52433594 -42.0615625 19.04867188 -41.578125 18.55859375 C-32.34482121 9.43956352 -15.05997469 2.24873564 -2.15625 1.9296875 C-1.08890625 1.96449219 -1.08890625 1.96449219 0 2 C0 1.34 0 0.68 0 0 Z " fill="#A3DCD9" transform="translate(85,1)"/>
<path d="M0 0 C7.85494069 1.12213438 12.50827632 5.72516317 17.1875 11.875 C20.68605958 17.90699928 21.9346808 24.11105635 21 31 C18.89983118 37.86811964 15.36171174 43.43448315 9.625 47.8125 C6.43019616 49.2577684 3.4746968 49.65934345 0 50 C0 49.01 0 48.02 0 47 C1.216875 46.7525 2.43375 46.505 3.6875 46.25 C8.9834863 44.90261126 11.91214859 42.76306952 14.8125 38.0625 C15.96805687 35.08237965 16.27814421 33.15230109 16 30 C15.34 30 14.68 30 14 30 C13.79375 30.886875 13.5875 31.77375 13.375 32.6875 C11.64255066 36.86112795 9.76386366 38.53901222 6 41 C2.625 41.3125 2.625 41.3125 0 41 C3 39 3 39 5 38.25 C7.88228057 36.44857464 8.67283847 34.05247151 10 31 C10.66 31 11.32 31 12 31 C12 30.01 12 29.02 12 28 C14.31 28 16.62 28 19 28 C16.56538232 17.9664241 14.63660275 10.31959611 6 4.12890625 C3.99087253 2.99484797 2.25517496 2.43794692 0 2 C0 1.34 0 0.68 0 0 Z " fill="#A3ACD7" transform="translate(107,105)"/>
<path d="M0 0 C1.32 0 2.64 0 4 0 C4 13.53 4 27.06 4 41 C2.68 41 1.36 41 0 41 C0 27.47 0 13.94 0 0 Z " fill="#9ECBC9" transform="translate(103,157)"/>
<path d="M0 0 C0 5.28 0 10.56 0 16 C-4.29 16 -8.58 16 -13 16 C-12.34 13.03 -11.68 10.06 -11 7 C-10.34 7 -9.68 7 -9 7 C-8.34 5.68 -7.68 4.36 -7 3 C-6.34 3 -5.68 3 -5 3 C-5 2.34 -5 1.68 -5 1 C-2 0 -2 0 0 0 Z " fill="#5C6FBE" transform="translate(103,114)"/>
<path d="M0 0 C0.66 0 1.32 0 2 0 C2.8125 2 2.8125 2 3 5 C0.68713512 10.4579288 -2.62949042 14.36954633 -8 17 C-11.375 17.25 -11.375 17.25 -14 17 C-14 17.99 -14 18.98 -14 20 C-15.32 20 -16.64 20 -18 20 C-18 16.7 -18 13.4 -18 10 C-15.6796875 10.12375 -15.6796875 10.12375 -13.3125 10.25 C-9.7539711 10.23994766 -8.23784028 10.13157122 -5.0625 8.375 C-2.78203657 5.7490118 -1.37552126 3.18541766 0 0 Z " fill="#BAC1DF" transform="translate(121,135)"/>
<path d="M0 0 C6.2358393 2.0786131 7.10863238 2.5508841 10 8 C10 8.99 10 9.98 10 11 C10.66 11 11.32 11 12 11 C12 12.65 12 14.3 12 16 C8.04 16 4.08 16 0 16 C0 10.72 0 5.44 0 0 Z " fill="#5C70BF" transform="translate(107,114)"/>
<path d="M0 0 C3.67204413 0.28477077 7.33544399 0.63140138 11 1 C12.73056641 1.16628906 12.73056641 1.16628906 14.49609375 1.3359375 C23.53938593 2.38587066 31.99039214 4.08425731 38.125 11.3125 C39.053125 12.6428125 39.053125 12.6428125 40 14 C37.23567122 13.60509589 35.26185458 13.16809218 32.89453125 11.6484375 C29.04998163 9.4589639 25.09030479 8.23674629 20.875 6.9375 C20.03348389 6.67437012 19.19196777 6.41124023 18.32495117 6.14013672 C12.28421516 4.29243682 6.27394063 2.81772709 0 2 C0 1.34 0 0.68 0 0 Z " fill="#99D9D6" transform="translate(118,3)"/>
<path d="M0 0 C13.2 0 26.4 0 40 0 C40.495 1.485 40.495 1.485 41 3 C35.64315122 3.02470696 30.28633556 3.04286331 24.92944336 3.05493164 C23.10684634 3.0599624 21.28425335 3.06678769 19.46166992 3.07543945 C16.84292606 3.08755997 14.22423553 3.09324086 11.60546875 3.09765625 C10.38188911 3.10539818 10.38188911 3.10539818 9.1335907 3.11329651 C5.82986071 3.1136246 3.15676862 3.05225621 0 2 C0 1.34 0 0.68 0 0 Z " fill="#CADAD9" transform="translate(1,130)"/>
<path d="M0 0 C12.21 0 24.42 0 37 0 C37 0.99 37 1.98 37 3 C25.12 3 13.24 3 1 3 C0.67 2.01 0.34 1.02 0 0 Z " fill="#A4CCCA" transform="translate(41,130)"/>
<path d="M0 0 C11.22 0 22.44 0 34 0 C34 0.99 34 1.98 34 3 C22.78 3 11.56 3 0 3 C0 2.01 0 1.02 0 0 Z " fill="#A4CBCA" transform="translate(131,130)"/>
<path d="M0 0 C3.63 0 7.26 0 11 0 C11 3.63 11 7.26 11 11 C7.10375918 10.72816925 5.24156679 10.18905227 2.125 7.75 C0 5 0 5 0 0 Z " fill="#586CBE" transform="translate(92,134)"/>
<path d="M0 0 C3.63 0 7.26 0 11 0 C8.86038593 7.24177072 8.86038593 7.24177072 6 10 C2.8125 10.75 2.8125 10.75 0 11 C0 7.37 0 3.74 0 0 Z " fill="#576BBE" transform="translate(107,134)"/>
<path d="M0 0 C9.24 0 18.48 0 28 0 C27.67 0.99 27.34 1.98 27 3 C27 2.34 27 1.68 27 1 C23.37 1 19.74 1 16 1 C16 4.63 16 8.26 16 12 C14.68 12 13.36 12 12 12 C12 8.37 12 4.74 12 1 C8.37 1 4.74 1 1 1 C0.67 1.99 0.34 2.98 0 4 C0 2.68 0 1.36 0 0 Z " fill="#8E9AC7" transform="translate(91,133)"/>
<path d="M0 0 C5.97428105 1.24150677 9.15711368 3.34681445 13.375 7.6875 C13.90738281 8.19216797 14.43976563 8.69683594 14.98828125 9.21679688 C18.66399126 12.91588926 19.74337162 15.6310641 20 21 C17.06528438 18.15421516 14.33241032 15.24308235 11.6875 12.125 C8.56530346 8.50077626 5.17567122 5.40629918 1.50390625 2.34765625 C1.00761719 1.90292969 0.51132813 1.45820313 0 1 C0 0.67 0 0.34 0 0 Z " fill="#9FDBD8" transform="translate(159,18)"/>
<path d="M0 0 C0 0.66 0 1.32 0 2 C-0.56847656 2.12375 -1.13695313 2.2475 -1.72265625 2.375 C-9.16936246 4.3641035 -13.31631312 8.36950299 -17.15234375 14.98828125 C-18.05524501 17.13111143 -18.39420338 18.94203379 -18.625 21.25 C-18.74875 22.4875 -18.8725 23.725 -19 25 C-19.66 25 -20.32 25 -21 25 C-21.46560549 18.48152307 -20.4112252 14.54622279 -17 9 C-16.46375 8.0925 -15.9275 7.185 -15.375 6.25 C-11.29294782 2.38279267 -5.64586 0 0 0 Z " fill="#94A1D4" transform="translate(103,105)"/>
<path d="M0 0 C0.99 0.66 1.98 1.32 3 2 C1.52290979 10.79303114 -0.2696587 16.7744343 -7 23 C-7.515625 23.61875 -8.03125 24.2375 -8.5625 24.875 C-9.2740625 25.431875 -9.2740625 25.431875 -10 26 C-12.08984375 25.5703125 -12.08984375 25.5703125 -14 25 C-12.9275 24.29875 -11.855 23.5975 -10.75 22.875 C-5.39587272 19.03517134 -2.65025019 14.34711612 -1 8 C-0.57985707 5.33426554 -0.2779082 2.68644591 0 0 Z " fill="#D7BED1" transform="translate(128,128)"/>
<path d="M0 0 C2.05213768 2.05213768 2.95314586 3.74040596 4.25 6.3125 C7.3229713 11.90135423 10.57793897 15.45892962 16.875 17.3125 C17.90625 17.539375 18.9375 17.76625 20 18 C20 18.99 20 19.98 20 21 C18.02 20.67 16.04 20.34 14 20 C14 19.34 14 18.68 14 18 C13.319375 17.979375 12.63875 17.95875 11.9375 17.9375 C7.00733933 16.36404447 3.41319025 12.38907406 0.80078125 7.97265625 C-0.29498012 5.27334166 -0.13092205 2.8802852 0 0 Z " fill="#94A2D5" transform="translate(83,134)"/>
<path d="M0 0 C6.61454738 0.94493534 10.57729157 4.12368045 15 9 C19.05532509 14.63239595 20.1307354 18.07102386 20 25 C18 24 18 24 17.2890625 21.92578125 C17.06992188 21.06339844 16.85078125 20.20101562 16.625 19.3125 C14.62063737 12.34684372 11.67577427 8.12003239 5.78125 3.98046875 C3.8717093 2.92938384 2.12838523 2.43407857 0 2 C0 1.34 0 0.68 0 0 Z " fill="#91A1D5" transform="translate(107,105)"/>
<path d="M0 0 C4.62 0 9.24 0 14 0 C13.67 0.99 13.34 1.98 13 3 C9.37 3 5.74 3 2 3 C2 2.34 2 1.68 2 1 C1.34 0.67 0.68 0.34 0 0 Z " fill="#9EDAD7" transform="translate(89,234)"/>
<path d="M0 0 C6.93 0.495 6.93 0.495 14 1 C14 1.33 14 1.66 14 2 C11.69 2.33 9.38 2.66 7 3 C7 3.33 7 3.66 7 4 C4.36 4 1.72 4 -1 4 C-0.67 2.68 -0.34 1.36 0 0 Z " fill="#99D5D0" transform="translate(108,0)"/>
<path d="M0 0 C1.98 0 3.96 0 6 0 C6 0.66 6 1.32 6 2 C6.66 2 7.32 2 8 2 C8 2.66 8 3.32 8 4 C4.7 4 1.4 4 -2 4 C-1.34 3.67 -0.68 3.34 0 3 C0 2.01 0 1.02 0 0 Z " fill="#9AD9D5" transform="translate(95,0)"/>
<path d="M0 0 C5.36757261 0.46272178 9.30500109 1.13719579 14 4 C14.33 4.66 14.66 5.32 15 6 C9.06 4.515 9.06 4.515 3 3 C3 2.34 3 1.68 3 1 C2.01 0.67 1.02 0.34 0 0 Z " fill="#A5E4E1" transform="translate(135,5)"/>
<path d="M0 0 C2.31 0 4.62 0 7 0 C7 1.32 7 2.64 7 4 C4.69 4 2.38 4 0 4 C0 2.68 0 1.36 0 0 Z " fill="#C5C8D8" transform="translate(119,129)"/>
<path d="M0 0 C3.3 0 6.6 0 10 0 C9.67 0.99 9.34 1.98 9 3 C6.36 3 3.72 3 1 3 C0.67 2.01 0.34 1.02 0 0 Z " fill="#99D8D5" transform="translate(107,234)"/>
<path d="M0 0 C0.6875 1.6875 0.6875 1.6875 1 4 C-1.26153846 8.63076923 -1.26153846 8.63076923 -4 10 C-5.99960012 10.039992 -8.00047242 10.04346799 -10 10 C-7 8 -7 8 -5 7.25 C-2.11771943 5.44857464 -1.32716153 3.05247151 0 0 Z " fill="#ABACD8" transform="translate(117,136)"/>
<path d="M0 0 C0.66 0 1.32 0 2 0 C1.67 3.3 1.34 6.6 1 10 C0.34 10 -0.32 10 -1 10 C-1.33 10.99 -1.66 11.98 -2 13 C-1.85769192 11.58297487 -1.71099254 10.1663904 -1.5625 8.75 C-1.48128906 7.96109375 -1.40007813 7.1721875 -1.31640625 6.359375 C-1.02365007 4.17635361 -0.57935581 2.1226818 0 0 Z " fill="#B0E2DE" transform="translate(8,73)"/>
<path d="M0 0 C0.66 0.33 1.32 0.66 2 1 C1.39009109 4.55780196 0.4216319 7.6828589 -1 11 C-1.66 10.01 -2.32 9.02 -3 8 C-2.01 6.02 -1.02 4.04 0 2 C-0.66 1.67 -1.32 1.34 -2 1 C-1.34 0.67 -0.68 0.34 0 0 Z " fill="#90DAD7" transform="translate(17,52)"/>
<path d="M0 0 C1.98 0 3.96 0 6 0 C6.33 0.99 6.66 1.98 7 3 C4.69 3 2.38 3 0 3 C0 2.01 0 1.02 0 0 Z " fill="#C8C9D7" transform="translate(84,130)"/>
<path d="M0 0 C0.66 0 1.32 0 2 0 C4.09230769 4.43076923 4.09230769 4.43076923 3.625 7.3125 C3.41875 7.869375 3.2125 8.42625 3 9 C1.35173889 6.03312999 0.55728913 3.34373475 0 0 Z " fill="#B8E5E3" transform="translate(13,183)"/>
</svg>
